<svg width="262" height="154" viewBox="0 0 262 154" fill="none" xmlns="http://www.w3.org/2000/svg">
<path d="M3.14696 77.0869V71.8643L32.6748 35.44H3.34783V30.2173H39.7722V35.44L10.2443 71.8643H39.5713V77.0869H3.14696ZM69.5762 77.8904C65.0678 77.8904 61.0727 76.8637 57.591 74.8104C54.1092 72.7571 51.3863 69.9002 49.4223 66.24C47.4582 62.5797 46.4762 58.3837 46.4762 53.6521C46.4762 48.8759 47.4359 44.68 49.3553 41.0643C51.3194 37.404 54.02 34.5472 57.4571 32.4939C60.8942 30.4405 64.8669 29.4139 69.3753 29.4139C73.8837 29.4139 77.8565 30.4629 81.2936 32.5608C84.7753 34.6142 87.4759 37.471 89.3953 41.1313C91.3147 44.7469 92.2745 48.9205 92.2745 53.6521C92.2745 58.3837 91.3147 62.5797 89.3953 66.24C87.4759 69.9002 84.7976 72.7571 81.3605 74.8104C77.9681 76.8637 74.04 77.8904 69.5762 77.8904ZM69.5762 72.7347C72.924 72.7347 75.8701 71.9313 78.4145 70.3243C80.9588 68.6727 82.9452 66.4185 84.3736 63.5617C85.8466 60.7049 86.5832 57.4017 86.5832 53.6521C86.5832 49.9472 85.8466 46.6663 84.3736 43.8095C82.9005 40.9081 80.8695 38.6539 78.2805 37.0469C75.7362 35.3953 72.7678 34.5695 69.3753 34.5695C66.0275 34.5695 63.0591 35.3953 60.4701 37.0469C57.8811 38.6539 55.8501 40.9081 54.3771 43.8095C52.904 46.6663 52.1675 49.9472 52.1675 53.6521C52.1675 57.4017 52.904 60.7049 54.3771 63.5617C55.8501 66.4185 57.9034 68.6727 60.5371 70.3243C63.1707 71.9313 66.1837 72.7347 69.5762 72.7347ZM110.961 77.0869V35.373H96.0292V30.2173H131.516V35.373H116.585V77.0869H110.961Z" fill="black"/>
<path d="M6.22696 144.043V97.1739H12.1191L28.3226 121.144L44.5261 97.1739H50.3513V144.043H44.727V106.28L28.3226 130.719L11.9183 106.414V144.043H6.22696ZM63.3545 144.043V97.1739H91.0745V102.33H69.0458V117.462H89.1327V122.55H69.0458V138.888H91.2084V144.043H63.3545ZM103.481 144.043V97.1739H131.201V102.33H109.173V117.462H129.26V122.55H109.173V138.888H131.335V144.043H103.481ZM153.049 144.043V102.33H138.118V97.1739H173.605V102.33H158.673V144.043H153.049Z" fill="black"/>
<path d="M233.678 0.000976562C238.233 0.00129663 241.926 3.69393 241.926 8.24902V26.5508H250.818C256.513 26.5508 261.129 31.1671 261.129 36.8613V135.198C261.129 140.892 256.513 145.51 250.818 145.51H164.213C164.652 141.424 168.608 111.774 192.012 99.0078C217.175 85.2824 236.244 91.1314 238.983 89.4443C241.721 87.7568 248.303 82.1681 246.016 79.8809C243.728 77.5938 197.971 66.0629 172.041 69.4746C169.001 69.8746 165.851 70.5644 162.685 71.4541C162.751 67.0509 163.496 63.5674 159.021 63.5674C154.362 63.5676 152.627 67.3458 152.627 72.0059C152.627 72.9455 152.783 73.8492 153.066 74.6934C137.496 80.7196 123.869 89.4443 123.869 89.4443V36.8613C123.869 31.1672 128.486 26.551 134.18 26.5508H143.072V8.24902C143.073 3.69377 146.766 0.00103601 151.321 0.000976562C155.877 0.00111573 159.569 3.69382 159.569 8.24902V26.5508H225.429V8.24902C225.429 3.69373 229.122 0.000976563 233.678 0.000976562ZM169.438 85.7119C169.438 83.3354 170.992 81.8851 172.746 82.166C174.5 82.4472 175.062 83.9618 175.062 85.7119C175.062 87.4619 174.235 88.7222 172.746 89.0391C171.257 89.3557 169.438 88.0882 169.438 85.7119Z" fill="black"/>
</svg>
