<svg width="244" height="244" viewBox="0 0 244 244" fill="none" xmlns="http://www.w3.org/2000/svg">
<path d="M195.2 0C203.298 0.00010721 209.863 6.56521 209.863 14.6631V31.8594H225.671C235.793 31.8594 244 40.066 244 50.1885V224.997C244 235.12 235.794 243.326 225.671 243.326H95.1621C94.2515 235.981 92.0095 199.915 130.881 173.611C174.357 144.192 202.045 155.424 216.772 151.962C231.5 148.499 239 136.333 221.5 123.5C204 110.667 148.5 90.7793 90.7266 93.6777C75.1118 94.4611 61.305 97.3058 49.4688 101.037C46.5957 94.1976 39.1168 89.2155 31.1484 90.2383C18.6486 91.8427 14.0669 100.876 15.1992 109.699C15.4979 112.026 16.1295 113.9 17.1973 115.36C6.6385 121.603 0.73325 126.918 0 127.592V50.1885C0.000148443 40.066 8.20657 31.8594 18.3291 31.8594H34.1367V14.6631C34.1369 6.56521 40.7019 0.000105671 48.7998 0C56.8978 0 63.4627 6.56514 63.4629 14.6631V31.8594H180.537V14.6631C180.537 6.56514 187.102 0 195.2 0ZM95.749 135.095C103.288 134.225 107.5 140 108.757 145.604C110.014 151.209 108.22 157.557 102.353 160.336C96.485 163.114 87.724 160.433 85.4404 151.705C83.1568 142.977 88.2096 135.964 95.749 135.095Z" fill="#FF87A6"/>
</svg>
