<svg width="244" height="244" viewBox="0 0 244 244" fill="none" xmlns="http://www.w3.org/2000/svg">
<path d="M195.2 0C203.298 0.00010721 209.863 6.56521 209.863 14.6631V31.8594H225.671C235.793 31.8594 244 40.066 244 50.1885V224.997C244 235.12 235.794 243.326 225.671 243.326H115.804C109.11 227.568 97.0181 187.182 132.562 157.986C162.958 137.418 189.004 145.179 192.613 142.851C196.222 140.522 204.895 132.811 201.881 129.655C198.864 126.499 144.88 100.073 104.487 102.1C91.9709 102.728 80.7268 105.198 70.6533 108.95C70.4835 108.743 70.3165 108.533 70.1592 108.318C66.0228 102.669 60.9075 99.4466 54.2812 101.008C47.655 102.569 43.58 109.548 46.8574 116.796C47.4244 118.05 48.0889 119.116 48.8672 120.002C22.9878 136.974 7.73982 162.137 0 178.43V50.1885C0.000148443 40.066 8.20657 31.8594 18.3291 31.8594H34.1367V14.6631C34.1369 6.56521 40.7019 0.000105671 48.7998 0C56.8978 0 63.4627 6.56514 63.4629 14.6631V31.8594H180.537V14.6631C180.537 6.56514 187.102 0 195.2 0ZM97.1455 133.947C102.709 133.306 105.503 136.96 106.744 141.702C107.985 146.445 106.348 150.523 102.019 152.573C97.6889 154.623 91.2242 152.645 89.5391 146.204C87.854 139.764 91.5822 134.589 97.1455 133.947Z" fill="#F26489"/>
</svg>
